<svg xmlns="http://www.w3.org/2000/svg" width="1024" height="1024" viewBox="0 0 300 300" aria-label="Salah icon">
  <!-- Single master geometry. No rounded-square background, no baked icon mask. -->
  <!-- Five circular arcs, width 6, separated from five circular dots, radius 12. -->
  <g data-tone="main" fill="none" stroke="#566F83" stroke-width="6" stroke-linecap="round">
    <path d="M171.2 50.2 A102 102 0 0 1 238.3 99"/>
    <path d="M251.4 139.3 A102 102 0 0 1 225.8 218.2"/>
    <path d="M191.5 243.2 A102 102 0 0 1 108.5 243.2"/>
    <path d="M74.2 218.2 A102 102 0 0 1 48.6 139.3"/>
    <path d="M61.7 99 A102 102 0 0 1 128.8 50.2"/>
  </g>
  <g data-tone="main" fill="#566F83">
    <circle cx="150" cy="48" r="12"/>
    <circle cx="247" cy="118.5" r="12"/>
    <circle cx="210" cy="232.5" r="12"/>
    <circle cx="90" cy="232.5" r="12"/>
    <circle cx="53" cy="118.5" r="12"/>
  </g>
  <!-- Isometric Kaaba: 12-unit top-band wall depth, 6-unit transparent gap. -->
  <path data-tone="light" d="M150 102 L192 126 L150 150 L108 126 Z" fill="#8299AA"/>
  <path data-tone="main" d="M108 126 L150 150 L150 162 L108 138 Z" fill="#566F83"/>
  <path data-tone="dark" d="M150 150 L192 126 L192 138 L150 162 Z" fill="#435A6C"/>
  <path data-tone="main" d="M108 144 L150 168 L150 204 L108 180 Z" fill="#566F83"/>
  <path data-tone="dark" d="M150 168 L192 144 L192 180 L150 204 Z" fill="#435A6C"/>
</svg>
